<svg width="24" height="24" viewBox="0 0 14 16" ><path d="M13.712 2v10q0 0.448-0.304 0.8t-0.768 0.528-0.928 0.288-0.848 0.096-0.864-0.096-0.928-0.288-0.768-0.528-0.304-0.8 0.304-0.8 0.768-0.528 0.928-0.288 0.864-0.096q0.928 0 1.712 0.352v-4.8l-6.864 2.112v6.336q0 0.448-0.304 0.8t-0.768 0.528-0.928 0.288-0.848 0.096-0.864-0.096-0.928-0.288-0.768-0.528-0.304-0.8 0.304-0.8 0.768-0.544 0.928-0.272 0.864-0.096q0.928 0 1.712 0.336v-8.624q0-0.272 0.16-0.512t0.448-0.32l7.424-2.272q0.112-0.048 0.256-0.048 0.352 0 0.608 0.256t0.24 0.608z"/></svg>