<svg width="24" height="24" viewBox="0 0 14 16" ><path d="M13.104 3.392q0.256 0.256 0.432 0.672t0.176 0.8v10.272q0 0.368-0.24 0.608t-0.608 0.256h-12q-0.368 0-0.608-0.256t-0.256-0.608v-14.272q0-0.368 0.256-0.608t0.608-0.256h8q0.352 0 0.784 0.176t0.672 0.432zM9.136 1.216v3.36h3.36q-0.080-0.272-0.192-0.368l-2.8-2.8q-0.096-0.112-0.368-0.192zM12.576 14.864v-9.152h-3.712q-0.368 0-0.608-0.256t-0.256-0.592v-3.728h-6.864v13.728h11.44zM3.424 7.136q0-0.112 0.080-0.192t0.208-0.080h6.288q0.128 0 0.208 0.080t0.080 0.192v0.576q0 0.128-0.080 0.208t-0.208 0.080h-6.288q-0.128 0-0.208-0.080t-0.080-0.208v-0.576zM10 9.136q0.128 0 0.208 0.080t0.080 0.208v0.576q0 0.128-0.080 0.208t-0.208 0.080h-6.288q-0.128 0-0.208-0.080t-0.080-0.208v-0.576q0-0.128 0.080-0.208t0.208-0.080h6.288zM10 11.424q0.128 0 0.208 0.080t0.080 0.208v0.576q0 0.128-0.080 0.208t-0.208 0.080h-6.288q-0.128 0-0.208-0.080t-0.080-0.208v-0.576q0-0.128 0.080-0.208t0.208-0.080h6.288z"></path></svg>