<svg width="24" height="24" viewBox="0 0 16 16" ><path d="M9.712 7.424q0-0.224-0.16-0.4t-0.416-0.16h-2.272q-0.24 0-0.4 0.16t-0.176 0.4 0.176 0.4 0.4 0.176h2.272q0.24 0 0.416-0.176t0.16-0.4zM14.864 5.712v8.576q0 0.224-0.176 0.4t-0.4 0.176h-12.576q-0.224 0-0.4-0.176t-0.176-0.4v-8.576q0-0.224 0.176-0.4t0.4-0.176h12.576q0.224 0 0.4 0.176t0.176 0.4zM15.424 1.712v2.288q0 0.224-0.16 0.4t-0.4 0.176h-13.728q-0.224 0-0.4-0.176t-0.16-0.4v-2.288q0-0.224 0.16-0.4t0.4-0.176h13.728q0.224 0 0.4 0.176t0.16 0.4z"/></svg>