<svg version="1.1" xmlns="http://www.w3.org/2000/svg" viewBox="0 0 13 16">
<path d="M11.429 10.449v-8.127c0-0.327-0.254-0.581-0.581-0.581h-9.723c0-0.399 0.581-0.581 0.581-0.581h9.687c0.617 0 0.581 0.544 0.581 0.544v12.807c0 0-0.109 0.363-0.581 0.363v-4.426zM10.63 5.732h-5.442v-2.939h5.442v2.939zM2.286 15.020h-0.98v-12.481h0.98v12.481zM13.134 14.803v-14.258c0-0.435-0.544-0.544-0.544-0.544h-10.993c-1.596 0-1.596 1.705-1.596 1.705v13.714c0 0.327 0.254 0.58 0.581 0.58h10.268c0.327 0 0.581-0.254 0.581-0.581h1.125c0.617 0 0.581-0.617 0.581-0.617z"></path>
</svg>
