<svg version="1.1" xmlns="http://www.w3.org/2000/svg" viewBox="0 0 16 16">
<path d="M7.92 10.998c-1.667 0-3.014-1.347-3.014-3.014s1.347-3.014 3.014-3.014c1.667 0 3.014 1.347 3.014 3.014s-1.347 3.014-3.014 3.014zM13.948 8.016c0-0.385-0.032-0.737-0.096-1.090l2.020-1.186-2.020-3.463-2.020 1.186c-0.545-0.481-1.186-0.834-1.892-1.090v-2.373h-4.008v2.341c-0.705 0.257-1.347 0.609-1.892 1.090l-2.052-1.154-1.988 3.463 2.020 1.186c-0.064 0.353-0.096 0.705-0.096 1.090s0.032 0.737 0.096 1.090l-2.020 1.154 1.988 3.463 2.020-1.186c0.545 0.481 1.186 0.834 1.892 1.090v2.341h4.040v-2.341c0.705-0.257 1.347-0.609 1.892-1.090l2.020 1.186 2.020-3.463-2.020-1.186c0.032-0.321 0.096-0.705 0.096-1.058z"></path>
</svg>
