<svg version="1.1" xmlns="http://www.w3.org/2000/svg" viewBox="0 0 16 16">
<path d="M3.35 2.038c0.914-0.586 2.694-1.406 4.592-0.562 2.6 1.171 3.514 3.49 7.449 0.422 0.328-0.258 0.609-0.117 0.609 0.328v7.965c0 0.445-0.234 1.078-0.539 1.382-0.679 0.633-1.944 1.593-3.28 1.546-2.015-0.070-3.982-2.389-5.786-2.389-1.171 0-2.319 0.609-3.022 1.054-0.351 0.234-0.632 0.070-0.632-0.375v-8.082c0-0.469 0.258-1.054 0.609-1.288zM1.242 0c-0.679 0-1.242 0.398-1.242 0.89 0 0.117 0.047 0.258 0.094 0.351 0.117 0.187 0.281 0.562 0.281 0.914v13.212c0 0.328 0.375 0.609 0.843 0.609s0.843-0.281 0.843-0.609v-13.212c0-0.328 0.187-0.726 0.281-0.914 0.070-0.117 0.094-0.234 0.094-0.351 0.047-0.492-0.515-0.89-1.195-0.89z"></path>
</svg>
