<svg version="1.1" xmlns="http://www.w3.org/2000/svg" viewBox="0 0 16 16">
<path d="M8.016 9.227c-0.654 0-1.211-0.524-1.211-1.211 0-0.654 0.524-1.211 1.211-1.211s1.211 0.524 1.211 1.211-0.556 1.211-1.211 1.211zM8.016 5.464c-1.407 0-2.552 1.145-2.552 2.552s1.145 2.552 2.552 2.552c1.407 0 2.552-1.145 2.552-2.552s-1.145-2.552-2.552-2.552zM8.016 11.681c-2.029 0-3.697-1.669-3.697-3.697s1.669-3.697 3.697-3.697c2.029 0 3.697 1.669 3.697 3.697-0.033 2.061-1.669 3.697-3.697 3.697zM8.016 0c-4.417 0-8.016 3.599-8.016 8.016s3.599 7.984 8.016 7.984 8.016-3.599 8.016-8.016c-0.033-4.384-3.599-7.984-8.016-7.984z"></path>
</svg>
