<svg version="1.1" xmlns="http://www.w3.org/2000/svg" viewBox="0 0 21 16">
<path d="M0.423 1.231c-0.269 0.423-0.423 0.923-0.423 1.423v10.654c0 0.5 0.115 0.923 0.346 1.308l6.731-7.538-6.654-5.846zM13.231 7.962l-2.154 1.885c-0.115 0.115-0.269 0.154-0.423 0.154s-0.308-0.038-0.423-0.154l-2.154-1.885-6.808 7.615c0.423 0.269 0.885 0.423 1.423 0.423h16c0.5 0 1-0.154 1.423-0.423l-6.885-7.615zM10.654 8.462l9.269-8.115c-0.385-0.192-0.808-0.346-1.269-0.346h-16c-0.462 0-0.885 0.115-1.269 0.346l9.269 8.115zM21.346 13.346c0 0.462-0.115 0.885-0.346 1.269l-6.731-7.538 6.654-5.846c0.269 0.423 0.423 0.885 0.423 1.423v10.692z"></path>
</svg>
