<svg version="1.1" xmlns="http://www.w3.org/2000/svg" viewBox="0 0 20 16">
<path d="M18.484 2.442h-9.811v2.442h9.811v-2.442zM18.484 6.147h-2.484v1.221h2.442v-1.221zM18.484 8.632h-2.484v1.221h2.442v-1.221zM18.484 11.074h-2.484v1.221h2.442v-1.221zM14.779 6.147h-2.442v1.221h2.442v-1.221zM14.779 8.632h-2.442v1.221h2.442v-1.221zM14.779 11.074h-2.442v1.221h2.442v-1.221zM11.074 6.147h-2.442v1.263h2.442v-1.263zM11.074 8.589h-2.442v1.263h2.442v-1.263zM11.074 11.074h-2.442v1.263h2.442v-1.263zM19.705 2.442v11.074c0 0.674-0.547 1.221-1.221 1.221h-11.116v-13.516h11.074c0.716 0 1.263 0.547 1.263 1.221zM1.221 1.221c-0.674 0-1.221 0.547-1.221 1.221v11.074c0 0.674 0.547 1.221 1.221 1.221v-13.516zM6.147 14.779c0 0.674-0.547 1.221-1.221 1.221h-1.221c-0.674 0-1.221-0.547-1.221-1.221v-13.558c-0.042-0.674 0.547-1.221 1.221-1.221h1.221c0.674 0 1.221 0.547 1.221 1.221v13.558z"></path>
</svg>
